<?xml version="1.0" encoding="UTF-8" standalone="no"?>
<!-- Created with Inkscape (http://www.inkscape.org/) -->

<svg
   xmlns:dc="http://purl.org/dc/elements/1.1/"
   xmlns:cc="http://creativecommons.org/ns#"
   xmlns:rdf="http://www.w3.org/1999/02/22-rdf-syntax-ns#"
   xmlns:svg="http://www.w3.org/2000/svg"
   xmlns="http://www.w3.org/2000/svg"
   xmlns:sodipodi="http://sodipodi.sourceforge.net/DTD/sodipodi-0.dtd"
   xmlns:inkscape="http://www.inkscape.org/namespaces/inkscape"
   width="44.11499mm"
   height="45.820595mm"
   viewBox="0 0 44.11499 45.820595"
   version="1.1"
   id="svg8"
   inkscape:version="0.92.4 (5da689c313, 2019-01-14)"
   sodipodi:docname="Logo_VDC.svg">
  <defs
     id="defs2" />
  <sodipodi:namedview
     id="base"
     pagecolor="#ffffff"
     bordercolor="#666666"
     borderopacity="1.0"
     inkscape:pageopacity="0.0"
     inkscape:pageshadow="2"
     inkscape:zoom="5.6568543"
     inkscape:cx="82.050944"
     inkscape:cy="80.932913"
     inkscape:document-units="mm"
     inkscape:current-layer="g1381"
     showgrid="false"
     showguides="true"
     inkscape:guide-bbox="true"
     inkscape:lockguides="true"
     fit-margin-top="0"
     fit-margin-left="0"
     fit-margin-right="0"
     fit-margin-bottom="0"
     inkscape:window-width="1920"
     inkscape:window-height="1017"
     inkscape:window-x="-8"
     inkscape:window-y="-8"
     inkscape:window-maximized="1">
    <sodipodi:guide
       position="-94.080634,439.44901"
       orientation="1,0"
       id="guide1375"
       inkscape:locked="true" />
  </sodipodi:namedview>
  <metadata
     id="metadata5">
    <rdf:RDF>
      <cc:Work
         rdf:about="">
        <dc:format>image/svg+xml</dc:format>
        <dc:type
           rdf:resource="http://purl.org/dc/dcmitype/StillImage" />
        <dc:title></dc:title>
      </cc:Work>
    </rdf:RDF>
  </metadata>
  <g
     inkscape:label="Camada 1"
     inkscape:groupmode="layer"
     id="layer1"
     transform="translate(-7.265509,-67.497372)">
    <g
       transform="matrix(0.35277777,0,0,-0.35277777,119.76569,281.60961)"
       inkscape:label="ink_ext_XXXXXX"
       id="g823">
      <g
         transform="matrix(0.1,0,0,0.1,-160.15969,-41.365747)"
         id="g825">
        <path
           style="fill:#900b0e;fill-opacity:1;stroke:none;stroke-width:4.15748024;stroke-linejoin:round;stroke-miterlimit:4;stroke-dasharray:none;stroke-opacity:1;paint-order:stroke fill markers"
           d="m 329.41211,199.95508 c -0.621,-0.009 -1.2406,0.0306 -1.83594,0.14258 -0.98666,0.184 -1.88956,0.82519 -3.10156,1.39453 0.12267,0.912 0.26755,1.97255 0.43555,3.19922 0.82266,-0.272 1.45431,-0.66215 2.07031,-0.63282 0.75867,0.0333 1.07781,0.69752 1.11914,1.49219 -1.468,0.33733 -2.86907,0.66425 -4.42773,1.01758 -0.0107,-0.6 -0.0276,-1.29335 -0.0449,-2.05469 -2.79333,1.14 -2.79348,1.14109 -3.88281,-0.51758 0.34667,-0.0547 0.6785,-0.0203 0.92383,-0.15234 0.348,-0.19067 0.67663,-0.46206 0.91797,-0.77539 0.08,-0.0947 -0.1248,-0.61452 -0.2168,-0.61719 -0.39867,-0.02 -0.92911,-0.0613 -1.17578,0.16406 -1.10934,1.01734 -2.21926,0.64637 -3.30859,0.0957 -1.57734,-0.79867 -2.92915,-0.57959 -4.36915,0.45508 -1.24133,0.88666 -2.42486,1.96396 -4.1582,2.02929 -0.54,0.02 -1.45348,0.69135 -1.52148,1.16602 -0.24667,1.70933 -1.33784,1.72043 -2.45117,1.50976 -0.36934,0.45867 -0.6662,1.06893 -0.88086,1.04493 -0.69334,-0.0813 -1.35947,-0.40108 -1.85547,-0.56641 -0.764,0.58133 -1.49668,1.09197 -2.16602,1.66797 -0.356,0.31066 -0.67453,0.70119 -0.89453,1.11719 -0.25733,0.48133 -0.3869,1.02686 -0.60156,1.63085 -1.04,0.0827 -2.02898,0.15909 -2.93164,0.23243 -0.70534,1.07466 -1.36408,2.08368 -2.08008,3.17968 -0.34933,-0.492 -0.60011,-0.85216 -0.91211,-1.29882 -0.38267,0.69733 -0.57724,1.33356 -1.00391,1.74023 -0.468,0.45067 -1.13698,0.69305 -1.70898,1.01172 0.59333,1.632 0.59401,1.6335 -0.97266,2.9375 -0.66666,0.184 -1.37025,-0.84854 -2.04492,0.0781 -0.43467,0.60934 -0.12739,0.97985 0.22461,1.33985 -0.916,0.66 -1.88763,1.25083 -3.1543,1.29883 -0.54133,0.02 -1.45677,0.69073 -1.52343,1.16406 -0.248,1.712 -1.33651,1.72043 -2.45118,1.50976 -0.36933,0.45867 -0.66424,1.07026 -0.8789,1.04493 -0.69467,-0.08 -1.36142,-0.40241 -1.85742,-0.56641 -0.76267,0.58 -1.49802,1.09197 -2.16602,1.66797 -0.35733,0.31067 -0.67453,0.70314 -0.89453,1.11914 -0.256,0.48 -0.3869,1.02624 -0.60156,1.62891 -1.03867,0.0827 -2.02836,0.15908 -2.92969,0.23242 -0.70667,1.07466 -1.36603,2.08502 -2.08203,3.17968 -0.348,-0.49066 -0.60144,-0.85349 -0.91211,-1.29882 -0.38267,0.696 -0.57857,1.33552 -1.00391,1.74218 -0.468,0.44934 -1.13698,0.69244 -1.70898,1.00977 0.59466,1.63333 0.59534,1.63483 -0.97266,2.9375 -0.66533,0.18533 -1.36963,-0.84659 -2.04297,0.0801 -0.66666,0.92933 0.40623,1.30416 0.71289,1.9375 -2.75066,0.82933 -4.08794,3.17346 -5.97461,4.82812 -0.548,0.48134 -0.94627,0.81104 -1.59961,0.48438 -1.02933,-0.52267 -1.76016,-0.18049 -2.4375,0.60351 1.38534,1.46267 1.31195,1.46538 0.11329,3.10938 -0.56934,0.77333 -0.81439,1.78622 -1.15039,2.71289 -0.14134,0.40533 -0.0402,0.90178 -0.21485,1.28711 -0.952,2.15733 -1.88475,4.32587 -2.96875,6.42187 -0.49066,0.95467 -0.61882,1.83305 -0.52148,2.87305 0.176,1.84533 0.57173,3.74109 -0.57227,5.48242 -0.22533,0.33334 -0.37976,0.9011 -0.25976,1.25977 0.69733,2.07066 -0.44809,3.92995 -0.71875,5.86328 -0.38,2.74267 -1.38096,5.39719 -2.01563,8.11719 -0.31467,1.33333 -0.66768,2.73369 -0.54101,4.06836 0.20933,2.292 0.80449,4.54812 1.17382,6.82812 0.24934,1.50267 0.32573,2.00914 0.90039,2.36914 -0.25466,0.75467 -0.35007,1.53581 -0.33007,2.36914 0.06,2.56534 0.0288,5.12874 0.16211,7.69141 0.0427,0.836 0.43893,1.66623 0.71093,2.49023 0.23067,0.704 0.84871,1.45627 0.72071,2.07227 -0.50267,2.53467 0.232,4.91066 0.5,7.36133 0.17066,1.53466 0.4468,2.93988 1.10547,4.31054 0.29599,0.616 0.54273,1.26315 0.80273,1.89649 0.98667,2.364 1.92013,4.74798 2.9668,7.08398 0.748,1.66134 1.59451,3.27076 2.47851,4.85742 0.84934,1.52134 1.54144,3.27273 2.77344,4.41407 1.91333,1.768 3.33721,4.05952 5.67187,5.38086 0.29067,0.16533 0.41762,0.61201 0.62696,0.91601 0.31466,0.46134 0.5587,1.01981 0.9707,1.36914 1.67867,1.416 3.18883,2.98846 4.54883,4.70313 0.152,0.19066 0.35202,0.36443 0.55469,0.50976 3.50133,2.56667 7.23278,4.71196 11.30078,6.25196 0.12,0.0467 0.31489,-0.0934 0.60156,-0.19336 -0.35467,-0.58134 -0.66139,-1.10179 -1.02539,-1.70313 1.33733,-1.49466 1.60451,-1.56549 3.08984,-0.66015 1.13867,0.69733 2.2534,1.30733 3.66407,1.25 1.024,-0.048 1.72008,0.50841 2.21875,1.45507 0.29866,0.57334 0.82271,1.12122 1.38671,1.44922 1.35334,0.79334 2.80507,1.04897 4.28907,1.1543 0.2,0.27333 0.41948,0.53811 0.63281,0.80078 1.052,1.28133 2.40355,1.94513 4.07422,1.95313 0.36666,0 0.75685,-0.0245 1.10351,0.0781 2.80134,0.85733 5.89013,0.41333 8.57813,1.86133 0.39333,0.21333 1.00047,0.003 1.48047,0.0937 0.46133,0.0867 1.0324,0.19314 1.3164,0.50781 0.784,0.87867 1.58874,0.74634 2.55274,0.40235 0.74,-0.26267 1.54865,-0.33309 2.33398,-0.48243 0.36134,-0.0707 0.79679,-0.029 1.07813,-0.20898 1.08267,-0.70133 1.72144,-0.0988 2.41211,0.64258 0.50666,0.53733 1.04973,1.09213 1.67773,1.46679 1.06533,0.63334 1.83518,0.40607 2.58985,-0.58593 0.18666,-0.24934 0.32572,-0.54154 0.53906,-0.76953 0.79733,-0.876 1.19494,-0.83267 2.21094,-0.11133 0.93333,0.65866 1.38558,1.57164 1.79492,2.57031 0.20133,0.49333 0.54206,1.24673 0.91406,1.30273 1.20667,0.19334 2.48635,0.28913 3.67969,0.0918 0.992,-0.16267 1.90943,-0.78484 3.13476,-1.32617 -0.10266,-0.91467 -0.22195,-1.97761 -0.36328,-3.21094 -0.832,0.256 -1.47056,0.63056 -2.08789,0.58789 -0.75467,-0.0493 -1.06265,-0.72229 -1.08398,-1.51562 1.47466,-0.30534 2.88522,-0.59993 4.44922,-0.91993 v 2.05469 c 2.81866,-1.07733 2.81714,-1.07915 3.86914,0.60352 -0.34934,0.048 -0.67841,0.006 -0.92774,0.13086 -0.352,0.18266 -0.68559,0.4459 -0.93359,0.7539 -0.0827,0.096 0.11174,0.621 0.20508,0.625 0.39466,0.0307 0.9284,0.0787 1.17773,-0.13867 1.13333,-0.99466 2.23188,-0.59748 3.31055,-0.0215 1.56,0.83466 2.91428,0.64134 4.37695,-0.36133 1.26,-0.85733 2.46722,-1.9095 4.19922,-1.9375 0.544,-0.007 1.4714,-0.65691 1.55273,-1.12891 0.284,-1.70533 1.37504,-1.69036 2.48438,-1.45703 0.37733,-0.448 0.68439,-1.05544 0.90039,-1.02344 0.69067,0.0947 1.35042,0.42876 1.84375,0.60743 0.776,-0.56667 1.51984,-1.05976 2.20117,-1.6211 0.36267,-0.30133 0.68926,-0.68503 0.91992,-1.0957 0.26534,-0.47733 0.40677,-1.02047 0.63477,-1.61914 1.04266,-0.06 2.03216,-0.11464 2.9375,-0.16797 0.72933,-1.05867 1.41039,-2.05353 2.15039,-3.13086 0.336,0.49867 0.58219,0.86503 0.88086,1.31836 0.39866,-0.68933 0.61025,-1.32408 1.04492,-1.71875 0.47733,-0.44 1.15118,-0.66928 1.72852,-0.97461 -0.556,-1.64533 -0.55694,-1.64544 1.03906,-2.91211 0.672,-0.17067 1.34954,0.87684 2.04687,-0.0352 0.68667,-0.91333 -0.38121,-1.31507 -0.67187,-1.95507 2.768,-0.768 4.15474,-3.07941 6.08008,-4.69141 0.55733,-0.46933 0.96332,-0.79312 1.61132,-0.45312 1.016,0.54666 1.75394,0.21855 2.44727,-0.55079 -1.352,-1.492 -1.27959,-1.49142 -0.0449,-3.10742 0.58666,-0.76133 0.85494,-1.7675 1.21094,-2.6875 0.15066,-0.404 0.0595,-0.90053 0.24218,-1.2832 0.99867,-2.13333 1.97933,-4.28285 3.11133,-6.35352 0.512,-0.944 0.65865,-1.81999 0.58399,-2.86132 -0.0773,-1.07867 -0.19556,-2.17491 -0.0742,-3.24024 0.81333,-0.51733 0.91439,-1.04944 0.78906,-2.27344 0.22,-0.33333 0.37167,-0.86098 0.26367,-1.20898 -0.032,-0.10667 -0.0417,-0.20974 -0.0684,-0.31641 0.70934,-0.69733 0.12203,-1.57154 0.082,-2.43554 0.0133,-0.0507 0.0179,-0.0997 0.0312,-0.15039 1.568,-0.3 2.00659,-1.34601 1.78125,-2.88868 -0.30533,0.0573 -0.65081,0.0383 -0.88281,0.1836 -0.0573,0.0387 -0.11063,0.0792 -0.16797,0.11523 0.0253,-0.116 0.0529,-0.23618 0.0742,-0.35351 0.44,-2.736 1.50065,-5.36694 2.19531,-8.07227 0.344,-1.324 0.72624,-2.71735 0.62891,-4.05469 -0.12533,-1.82533 -0.47973,-3.6365 -0.78906,-5.45117 0.87466,0.39867 1.78203,0.51001 2.7207,0.52734 0.003,0.65334 0.14021,1.30411 0.68555,1.91211 0.60133,0.67334 0.59336,1.4854 -0.16797,2.16407 -0.972,0.85866 -0.83614,1.97396 -0.74414,3.27929 1.66266,-0.69066 2.0023,-0.96071 2.29297,-1.99804 0.10533,-0.39067 0.22223,-0.77954 0.35156,-1.15821 0.312,0.12534 0.57984,0.23451 0.83984,0.33985 0.0733,-0.196 0.14356,-0.39723 0.21289,-0.58789 -0.20266,-0.32 -0.42791,-0.54196 -0.78125,-0.50196 0.436,-1.092 1.0216,-2.11538 1.9336,-2.99804 0.67733,-0.65867 0.75413,-0.99116 0.35547,-1.53516 0.26933,-0.12533 0.52992,-0.34117 0.80859,-0.70117 -0.55867,-0.104 -1.00554,-0.14139 -1.4082,-0.0254 -0.18,-0.27334 -0.28593,-0.63641 -0.3086,-0.95508 -0.02,-0.23867 -0.0726,-0.43604 -0.14062,-0.60938 0.18666,-0.18533 0.38314,-0.40393 0.61914,-0.69726 0.448,-0.54933 1.12665,-0.91941 1.72265,-1.33008 0.348,-0.24 0.74911,-0.41636 1.03711,-0.56836 0.072,-0.80266 -0.0737,-1.60261 0.23828,-2.11328 0.56667,-0.92 0.62786,-1.84508 0.75586,-2.84375 0.116,-0.97467 0.55776,-1.90384 0.8711,-2.83984 0.13466,-0.41867 0.45908,-0.81351 0.45508,-1.21485 -0.003,-1.672 0.9726,-3.24418 0.44726,-4.99218 -0.13866,-0.476 0.19551,-1.09325 0.32617,-1.64258 0.11067,-0.49067 0.29575,-0.96903 0.34375,-1.45703 0.31467,-3.29067 -0.25213,-6.48925 -1.10546,-9.64258 -0.11467,-0.41067 -0.28498,-0.8574 -0.57032,-1.16406 -0.53466,-0.588 -0.53192,-1.21103 -0.41992,-1.92969 0.39867,-2.44534 -0.28335,-4.72327 -1.16602,-6.94727 -0.26799,-0.688 -0.80595,-1.29157 -1.00195,-1.99023 -0.38133,-1.42 -0.81882,-2.75671 -2.02148,-3.7207 -0.272,-0.216 -0.37497,-0.63542 -0.54297,-0.96876 -0.38533,-0.78133 -0.77325,-1.55965 -1.14258,-2.34765 -0.64667,-1.38533 -2.19403,-2.31313 -2.08203,-4.0918 0.007,-0.15466 -0.14001,-0.37408 -0.27734,-0.46875 -1.28534,-0.91466 -1.38975,-2.48036 -2.09375,-3.70703 -0.216,-0.376 -0.31586,-0.86996 -0.61719,-1.14062 -1.324,-1.184 -1.79786,-2.83467 -2.50586,-4.36133 -0.264,-0.56934 -0.4522,-1.17165 -0.76953,-1.70899 -1.82,-3.12133 -3.64849,-6.23888 -5.53516,-9.32422 -0.33067,-0.54133 -0.88689,-1.06316 -1.46289,-1.3125 -0.872,-0.376 -1.50998,-0.90891 -1.83398,-1.76757 -0.636,-1.66267 -1.80145,-2.65452 -3.55079,-2.97852 -0.62399,-0.112 -0.99998,-0.45052 -1.08398,-1.11719 -0.0453,-0.35066 -0.19684,-0.6889 -0.32617,-1.1289 -2.04267,0.24133 -4.25504,-1.24629 -5.8457,1.12304 -1.15867,-1.11466 0.38624,-1.72923 0.26757,-2.72656 -0.18533,-0.168 -0.46808,-0.39163 -0.71875,-0.6543 -1.21466,-1.28933 -3.21656,-1.57858 -4.11523,-3.28125 -0.256,-0.48533 -0.66592,-0.90722 -1.03125,-1.33789 -1.08,-1.25733 -2.44457,-1.89128 -4.11523,-1.86328 -0.36667,0.009 -0.75747,0.0419 -1.10547,-0.0527 -2.81867,-0.796 -5.89914,-0.28388 -8.61914,-1.67188 -0.39867,-0.20266 -0.99781,0.0214 -1.48047,-0.0586 -0.46134,-0.0773 -1.03675,-0.17309 -1.33008,-0.48242 -0.80133,-0.85867 -1.60126,-0.70642 -2.5586,-0.34375 -0.73333,0.28133 -1.54021,0.36715 -2.32421,0.53515 -0.35734,0.0773 -0.79298,0.0451 -1.07032,0.23047 -1.06533,0.72667 -1.72044,0.13806 -2.42578,-0.58594 -0.51866,-0.52799 -1.07494,-1.07235 -1.71093,-1.42968 -1.07734,-0.612 -1.84418,-0.36738 -2.57618,0.64062 -0.18133,0.25467 -0.31543,0.54792 -0.52343,0.78125 -0.776,0.89334 -1.17308,0.85883 -2.20508,0.16016 -0.948,-0.636 -1.4209,-1.5413 -1.85157,-2.5293 -0.21199,-0.49066 -0.57073,-1.23787 -0.9414,-1.2832 -0.606,-0.084 -1.22861,-0.14106 -1.84961,-0.15039 z m 1.0625,5.85547 c 0.17283,0.001 0.34686,0.007 0.51953,0.008 -0.0307,0.21867 -0.0585,0.44344 -0.0918,0.66211 -0.344,-0.0587 -0.68653,-0.11578 -1.0332,-0.17578 0.0293,-0.168 0.0412,-0.46537 0.0879,-0.47071 0.172,-0.0213 0.34475,-0.0246 0.51758,-0.0234 z m -15.30664,0.54687 c 0.29067,0.71334 0.54518,1.32836 0.83984,2.06836 -1.58266,0.86133 -1.7171,0.74262 -2.25976,-1.88672 0.47333,-0.0627 0.93859,-0.1243 1.41992,-0.18164 z m -6.00781,1.13477 c 0.46533,1.40666 -0.28509,1.80908 -0.84375,2.20508 -0.46134,0.33066 -0.94895,0.14427 -1.23829,-0.65039 0.604,-0.456 1.24737,-0.92803 2.08204,-1.55469 z m 16.42578,0.54101 c 0.368,0.23067 0.68835,0.58122 0.92968,0.94922 0.0347,0.0653 -0.51044,0.68987 -0.67578,0.64453 -0.38266,-0.1 -0.70265,-0.4546 -1.22265,-0.83593 0.488,-0.39467 0.87808,-0.81515 0.96875,-0.75782 z m 38.08203,1.34571 c 0.15733,-0.0253 0.55704,0.46528 0.5957,0.75195 0.092,0.66133 -0.42636,0.86072 -0.95703,0.77539 -0.348,-0.0573 -0.66925,-0.33685 -1.41992,-0.74219 0.86267,-0.40666 1.30125,-0.69715 1.78125,-0.78515 z m -32.66602,0.20898 c 0.46749,-0.0519 0.7512,0.28875 1.20703,1.09375 0.672,1.18267 1.41684,2.31706 2.32618,3.78906 -1.45334,-0.0933 -2.66819,-0.10763 -3.85352,-0.29297 -0.32533,-0.0467 -0.62437,-0.55806 -0.8457,-0.91406 -0.228,-0.364 -0.32267,-0.80455 -0.5,-1.19922 -0.48934,-1.06266 -0.40051,-1.40527 0.54883,-1.97461 0.49,-0.298 0.83669,-0.47081 1.11718,-0.50195 z m -3.88476,1.06445 c 0.27866,0.74134 0.64382,1.44102 0.78515,2.17969 0.15467,0.828 -0.49039,1.45536 -1.28906,1.44336 -0.84933,-0.0147 -1.20658,-0.4739 -1.14258,-1.47656 0.0813,-1.32934 0.0811,-1.32915 1.64649,-2.14649 z m -16.1211,0.34375 c 1.15867,0.808 2.13906,1.4953 3.26172,2.2793 0.10934,0.92133 -0.46328,1.16727 -1.36328,0.94727 -0.996,-0.248 -1.55214,0.0879 -1.74414,1.19726 0.40267,0.27067 0.80401,0.53218 1.27734,0.85352 -0.31066,0.184 -0.58803,0.35414 -0.83203,0.49414 0.0867,0.69866 0.4556,1.53464 0.1836,1.94531 -0.56267,0.85733 -1.39276,1.59693 -2.2461,2.18359 -0.692,0.472 -1.56928,-0.29857 -1.25195,-1.14257 0.50533,-1.36534 0.32908,-2.20944 -1.15625,-2.77344 -0.87867,-0.33067 -0.81546,-0.72583 -0.0781,-2.17383 -0.564,-0.26667 -1.13233,-0.53724 -2.09766,-1.00391 1.11467,-0.60266 1.82566,-1.24793 2.59766,-1.33593 0.78133,-0.0893 1.62015,0.38276 2.52148,0.63476 0.30667,-0.68533 0.5704,-1.28947 0.92773,-2.10547 z m 5.83203,0.56446 c 0.65494,-0.0654 1.07176,0.30714 1.59376,0.86914 -1.11467,0.36533 -1.62847,-0.0431 -2.3418,-0.64844 0.28366,-0.128 0.52973,-0.19891 0.74804,-0.2207 z m 4.2754,0.76757 c -0.16134,1.156 -0.51137,1.415 -1.08204,1.23633 -0.15066,-0.0533 -0.21107,-0.37688 -0.3164,-0.57422 0.37066,-0.172 0.73844,-0.35011 1.39844,-0.66211 z m -5.26954,2.03907 c 0.0587,-0.009 0.14951,0.12173 0.21485,0.17773 -0.076,0.08 -0.1368,0.20594 -0.2168,0.22461 -0.06,0.0133 -0.1558,-0.11755 -0.23047,-0.18555 0.072,-0.0733 0.14309,-0.19946 0.23242,-0.21679 z m -10.91015,0.46875 c 0.08,0.032 0.11987,0.17858 0.17187,0.28125 -0.10266,0.0467 -0.22887,0.14918 -0.29687,0.11719 -0.084,-0.0293 -0.11712,-0.1833 -0.17578,-0.2793 0.108,-0.0413 0.22744,-0.14848 0.30078,-0.11914 z m -37.17578,0.42187 c -0.984,-0.0347 -1.82321,0.90648 -1.78321,2.00781 0.0387,1.08267 0.91995,1.8948 1.97461,1.82813 0.89734,-0.0573 1.43221,-0.77171 1.40821,-1.87305 -0.024,-1.16266 -0.65028,-1.92822 -1.59961,-1.96289 z m 41.67187,0.88672 c -0.0147,0.0507 -0.0294,0.10158 -0.0508,0.15625 0.0493,0.0307 0.0947,0.0884 0.13867,0.0937 0.0453,0 0.0915,-0.0604 0.13281,-0.0937 -0.0707,-0.0547 -0.14603,-0.10558 -0.2207,-0.15625 z m 17.5293,0.46875 c 0.0646,-0.012 0.11782,-0.008 0.16016,0.0176 0.84266,0.452 1.62707,1.00139 2.45507,1.52539 3.132,-1.40267 3.14059,-1.44381 5.66993,-0.86914 1.18266,0.26933 2.26194,0.58955 3.36328,-0.31445 0.30266,-0.25067 0.95907,-0.0898 1.45507,-0.0898 0.68134,0 1.36555,0.0371 2.04688,0.0371 0.87467,-0.003 1.77381,-0.15457 2.61914,-0.004 0.93867,0.16933 1.77593,0.40408 2.69727,-0.14258 0.30266,-0.17467 1.07841,0.0127 1.34375,0.30468 0.99733,1.068 2.17684,1.08197 3.46484,0.91797 0.612,-0.08 1.27404,-0.12208 1.85937,0.0312 0.91334,0.23734 1.79134,0.31288 2.75,0.29688 1.32267,-0.0253 2.75806,0.11566 3.2754,1.84766 0.22799,0.75999 0.73646,1.36011 1.84179,1.18945 0.68934,-0.1 1.60066,-0.11026 2.11133,0.8164 0.28667,0.51067 0.83858,0.37809 1.28125,-0.0312 0.25333,-0.224 0.56508,-0.3793 0.84375,-0.55664 1.384,1.73334 2.36062,2.32873 4.00195,2.41407 -0.46266,-0.628 -0.85729,-1.17134 -1.39062,-1.88868 1.688,0.17867 3.0573,0.33689 4.02929,1.57422 0.444,0.57334 0.95957,1.09651 1.49024,1.58985 0.25067,0.23466 0.59778,0.44666 0.92578,0.5 0.48267,0.0747 0.98368,0.003 1.40234,-0.008 1.06,0.89867 1.08595,2.64834 2.72461,2.875 0.54667,1.50534 1.98434,2.51782 2.51368,3.89649 0.61733,1.62267 1.66575,2.22947 3.09375,2.60547 0.65333,0.17066 1.34312,0.19483 2.06445,0.29883 0.108,1.84533 0.76133,3.23197 2.5,3.94531 0.31067,0.128 0.51154,0.65063 0.6582,1.0293 0.53334,1.39599 1.03063,2.80736 1.5293,4.2207 0.632,1.776 1.70869,3.42719 0.94336,5.50586 -0.0747,0.208 -0.12143,0.42772 -0.13477,0.65039 -0.53733,-0.944 -1.04609,-1.91032 -1.74609,-2.70899 -2.05867,-2.35466 -4.23639,-4.60514 -6.40039,-6.86914 -2.532,-2.65333 -5.34336,-4.97886 -8.30469,-7.13086 -8.19333,-12.164 -18.06903,-15.19569 -36.95703,-13.81836 -4.98133,0.41067 -10.01778,0.49387 -14.92578,1.28321 -0.0853,0.0147 -0.16467,0.0349 -0.25,0.0469 -0.628,-0.348 -1.27749,-0.21173 -2.02149,0.0723 -0.73333,0.28 -1.54022,0.36911 -2.32421,0.53711 -0.35734,0.0773 -0.79494,0.0445 -1.07227,0.22851 -0.97067,0.66134 -1.59828,0.22247 -2.23828,-0.4082 -0.0867,-0.532 -0.32103,-1.18107 -0.45703,-1.92773 0.68933,0.35466 1.17127,0.53817 1.58593,0.82617 1.65467,1.13466 3.34476,1.09852 4.7461,-0.24414 0.692,-0.656 1.52773,-1.00004 2.28906,-1.47071 0.932,-0.58133 1.87934,-0.24625 2.88867,-0.54492 -0.44533,-0.636 -0.77903,-1.12619 -1.20703,-1.74219 0.325,-0.107 0.61094,-0.27851 0.80469,-0.31445 z m -23.79883,1.31055 c 0.21983,-0.011 0.50982,0.047 0.89649,0.15234 -0.464,0.009 -0.92967,0.0235 -1.375,0.10352 0.10733,-0.16534 0.25868,-0.24486 0.47851,-0.25586 z m 14.125,0.44336 c 0.91467,0.20533 1.06988,0.55595 0.42188,1.25195 -0.12134,-0.35067 -0.23921,-0.70529 -0.42188,-1.25195 z m -10.47266,0.26367 c 0.22267,0.028 0.43135,0.0525 0.66602,0.0898 -0.0987,0.20534 -0.22037,0.35824 -0.3457,0.49024 -0.092,-0.2 -0.20032,-0.40008 -0.32032,-0.58008 z m 6.17969,0.93164 c 0.072,0.0267 0.0997,0.1762 0.15039,0.26953 -0.0947,0.0493 -0.19182,0.0985 -0.28515,0.14649 -0.0493,-0.096 -0.0959,-0.19102 -0.14258,-0.29102 0.0893,-0.0507 0.20934,-0.153 0.27734,-0.125 z m -13.19531,2.00977 c 0.052,0.39066 0.10602,0.77565 0.16601,1.20898 0.824,-0.27333 1.45627,-0.6641 2.07227,-0.63477 0.508,0.024 0.80475,0.34197 0.96875,0.7793 -0.008,0.10533 -0.0289,0.21752 -0.0996,0.35352 -0.31733,0.61333 -0.76277,0.38573 -1.27344,0.17773 -0.436,-0.17467 -0.96255,-0.13659 -1.44921,-0.16992 -0.472,-0.0293 -0.95337,-0.0303 -1.47071,-0.041 0.192,-0.62133 0.49527,-1.11382 1.08594,-1.67382 z m -56.99609,11.77343 c -0.984,-0.036 -1.82321,0.90648 -1.78321,2.00782 0.0413,1.08266 0.9219,1.89612 1.97657,1.82812 0.89599,-0.0573 1.42891,-0.77038 1.40624,-1.87305 -0.024,-1.16266 -0.6516,-1.92822 -1.5996,-1.96289 z m 153.19921,10.86719 c 0.0907,0.11067 0.17496,0.21693 0.26563,0.32227 -0.1,0.0573 -0.2054,0.15572 -0.30274,0.15039 -0.0693,-0.009 -0.13026,-0.15075 -0.18359,-0.21875 0.0747,-0.0827 0.14737,-0.16858 0.2207,-0.25391 z m -140.20507,6.48047 c 0.22344,0.0253 0.55965,0.21317 1.09765,0.51367 -0.59733,0.33067 -1.04688,0.58665 -1.68554,0.94531 0.1575,-1.09166 0.21548,-1.5011 0.58789,-1.45898 z m 129.58984,2.42578 c 0.184,0.35867 0.36064,0.72293 0.55664,1.07227 0.21067,0.37866 0.41167,0.76781 0.625,1.14648 0.616,1.084 1.24313,2.16653 1.8418,3.25586 1.05733,1.92133 1.99259,3.91205 3.16992,5.74805 1.02267,1.60133 1.80711,3.28111 2.42578,5.03711 -0.028,0.18933 -0.0629,0.37716 -0.10156,0.5625 -0.26,1.29866 -1.08739,2.58029 0.36328,3.76562 0.27333,0.21867 0.27644,0.98569 0.14844,1.42969 -0.228,0.81067 -0.63595,1.57289 -0.97461,2.35156 -0.0227,-0.0187 -0.0398,-0.0244 -0.0625,-0.0391 0.0133,0.0293 0.0224,0.06 0.0371,0.084 l 0.0352,-0.0312 c -0.0187,0.228 -0.0438,0.46536 -0.0625,0.69336 -0.0627,-0.29066 -0.12464,-0.58166 -0.19531,-0.875 0.06,0.044 0.12821,0.0889 0.18555,0.12891 -0.0773,-0.20667 -0.12302,-0.4548 -0.29102,-0.60547 -0.23333,-0.91867 -0.49545,-1.84348 -0.80078,-2.77148 -0.22667,-0.692 -0.44335,-1.38737 -0.66601,-2.08204 -0.16,-0.96933 -0.37893,-1.91407 -0.79493,-2.83007 -0.20933,-0.46667 -0.38374,-0.95155 -0.5664,-1.43555 -1.548,-4.89867 -3.09438,-9.80547 -4.87305,-14.60547 z m -129.38281,0.24024 c 0.43289,-0.0267 0.89354,0.30067 1.48437,0.46484 -1,1.07733 -1.58119,0.6775 -2.25586,0.0762 0.2625,-0.383 0.51175,-0.52502 0.77149,-0.54101 z m 6.07031,2.5332 c 0.0733,0.0173 0.11897,0.15223 0.18164,0.24023 -0.0893,0.0627 -0.18315,0.17678 -0.25781,0.16211 -0.0733,-0.0133 -0.12093,-0.15419 -0.1836,-0.24219 0.0893,-0.0573 0.1851,-0.16815 0.25977,-0.16015 z m -4.89844,2.03515 c 0.38,0.32934 0.72138,0.63409 1.10938,0.96875 0.396,-0.26 0.74108,-0.49186 1.34375,-0.89453 -0.016,0.59067 0.12426,1.11055 -0.0664,1.31055 -0.776,0.80933 -0.88696,1.68914 -0.4043,2.73047 -0.14666,0.0867 -0.29536,0.1762 -0.44336,0.26953 -0.26533,-0.248 -0.64568,-0.44281 -0.79101,-0.74414 -1.172,-2.492 -1.15738,-2.50463 -0.74805,-3.64063 z m 13.02539,0.61719 c -1.076,2.42534 -2.04613,4.9274 -2.85547,7.55274 0.0627,-0.51067 0.0339,-1.06345 0.006,-1.66211 -1.67733,0.65733 -2.0226,0.91988 -2.33593,1.94922 -0.116,0.388 -0.24024,0.77439 -0.37891,1.15039 -0.18667,-0.08 -0.34248,-0.14942 -0.50781,-0.21875 0.236,-0.58134 0.37826,-1.21502 0.32226,-1.92969 -0.028,-0.37733 0.28857,-0.79488 0.47657,-1.18555 0.184,-0.38266 0.40227,-0.7529 0.5996,-1.1289 0.0213,-0.003 0.0367,-0.0117 0.0566,-0.0117 0.15066,-0.003 0.32754,-0.18289 0.43554,-0.32422 0.772,-0.972 1.56901,-1.93037 2.26367,-2.95703 0.0147,-0.0253 0.02,-0.0638 0.0293,-0.0918 0.68,-0.32267 1.30067,-0.71324 1.88867,-1.14258 z m -17.02539,1.22266 c 0.12267,0.0627 0.23476,0.12483 0.35742,0.1875 -0.17733,0.36533 -0.36049,0.72398 -0.53515,1.08398 -0.14,-0.08 -0.28116,-0.16423 -0.42383,-0.24023 0.2,-0.34667 0.3989,-0.68859 0.60156,-1.03125 z m 1.2793,2.47656 c 0.35384,0.0288 0.54674,0.29544 0.70508,0.78711 -0.332,0.008 -0.55986,0.0667 -0.75586,0 -0.208,-0.076 -0.36844,-0.26346 -0.78711,-0.57813 0.3545,-0.15799 0.62558,-0.22624 0.83789,-0.20898 z m -1.71484,0.0586 c 0.056,0.0827 0.10753,0.17053 0.1582,0.25586 -0.088,0.0467 -0.18786,0.14829 -0.25586,0.12696 -0.072,-0.024 -0.10825,-0.15757 -0.15625,-0.24024 0.0827,-0.0493 0.16991,-0.0972 0.25391,-0.14258 z m 14.41015,4.52735 c -0.296,0.99733 -0.56102,2.02154 -0.81836,3.04687 -0.005,-0.005 -0.008,-0.0136 -0.0137,-0.0176 -0.58667,-0.68667 -0.56054,-1.49883 0.2168,-2.16016 0.30666,-0.26 0.48457,-0.55581 0.61523,-0.86914 z m -14.89258,0.61719 c -0.12266,2.83733 -0.76862,3.0624 -3.00195,2.5664 0.009,-0.41066 -0.11065,-0.98408 0.0547,-1.08008 0.904,-0.53733 1.8726,-0.96366 2.94726,-1.48632 z m 1.52735,0.10156 c 0.136,0.33866 0.22271,0.49615 0.24804,0.66015 0.028,0.16934 -0.009,0.35614 -0.0215,0.60547 0.44267,0.04 0.85857,0.0776 1.36523,0.12696 0.0773,0.41333 0.15091,0.82016 0.24024,1.29882 0.37467,0.0373 0.77295,0.0802 1.23828,0.13086 0.0627,1.70267 -1.67699,1.48366 -2.34766,2.34766 -0.256,0.336 -1.14318,0.27537 -1.72851,0.2207 -0.21067,-0.0173 -0.57135,-0.58703 -0.52735,-0.8457 0.24667,-1.384 0.59031,-2.75052 0.93165,-4.11719 0.0333,-0.12666 0.27622,-0.2064 0.60156,-0.42773 z m 9.99609,0.45312 c 0.152,0.172 0.32436,0.30001 0.56836,0.27735 -0.46,1.08533 -1.06738,2.09374 -1.99805,2.95508 -0.69066,0.64266 -0.77595,0.97205 -0.39062,1.52539 -0.27067,0.11733 -0.5356,0.33016 -0.82227,0.6875 0.556,0.11466 1.00287,0.16002 1.40821,0.0547 0.17333,0.27734 0.27049,0.63961 0.28515,0.96094 0.0147,0.23733 0.0649,0.43471 0.12891,0.60938 -0.19067,0.18133 -0.39477,0.39621 -0.63477,0.68554 -0.46133,0.53867 -1.14724,0.8943 -1.7539,1.29297 -0.352,0.23333 -0.75683,0.39888 -1.04883,0.54688 -0.0907,0.79866 0.0395,1.60013 -0.2832,2.10546 -0.58534,0.904 -0.6717,1.8308 -0.81836,2.82813 -0.13734,0.96933 -0.59964,1.88636 -0.93164,2.81836 -0.14667,0.41333 -0.47843,0.79984 -0.48243,1.20117 -0.036,1.67333 -1.04526,3.22571 -0.55859,4.98438 0.12667,0.47866 -0.21999,1.08748 -0.36133,1.63281 -0.12266,0.488 -0.31766,0.96317 -0.375,1.45117 -0.388,3.28267 0.10663,6.49073 0.89063,9.66406 0.10533,0.41334 0.2643,0.8644 0.54297,1.17774 0.52133,0.59866 0.50566,1.21821 0.375,1.93554 -0.45067,2.43467 0.18362,4.72928 1.01562,6.97461 0.252,0.69334 0.7797,1.30648 0.95703,2.00782 0.35067,1.43066 0.7575,2.77424 1.9375,3.76757 0.268,0.22 0.36344,0.64252 0.52344,0.97852 0.36667,0.792 0.73651,1.57509 1.08984,2.37109 0.616,1.4 2.14286,2.36268 1.99219,4.13868 -0.012,0.156 0.13025,0.37461 0.26758,0.47461 1.26267,0.94133 1.33438,2.51123 2.01172,3.7539 0.20533,0.38133 0.29517,0.87306 0.58984,1.15039 1.29733,1.21467 1.73416,2.87664 2.41016,4.41797 0.25066,0.57467 0.42842,1.18194 0.73242,1.72461 1.74933,3.16267 3.50884,6.31998 5.32617,9.44531 0.31867,0.54934 0.86426,1.08304 1.4336,1.34571 0.68133,0.31333 1.16185,0.76622 1.50585,1.35156 -2.936,-1.404 -5.4372,-3.56401 -8.5332,-4.63867 -0.39067,-0.12934 -0.68958,-0.53694 -1.01758,-0.82227 -1.48533,-1.24933 -2.81566,-2.78821 -4.48633,-3.68555 -2.05866,-1.09866 -3.06152,-2.85717 -4.13085,-4.70117 -0.93467,-1.61333 -1.79788,-3.29282 -2.92188,-4.77148 -0.85733,-1.12534 -1.63053,-2.17201 -1.75586,-3.63867 -0.0453,-0.52267 -0.37107,-1.05696 -0.67773,-1.51563 -0.732,-1.088 -1.55992,-2.11574 -2.28125,-3.20508 -0.26,-0.396 -0.49623,-0.92309 -0.46289,-1.37109 0.108,-1.608 -0.51568,-2.89312 -1.40235,-4.17578 -1.23066,-1.77867 -2.09707,-3.67904 -1.5664,-5.98438 0.20133,-0.888 -0.0228,-1.8685 -0.0508,-2.8125 -0.012,-0.5 -0.16238,-1.04028 -0.0117,-1.48828 0.43733,-1.312 0.18929,-2.5891 0.0293,-3.89844 -0.14666,-1.20666 -0.28501,-2.42348 -0.40234,-3.63281 2.76267,0.98 4.81935,-0.71805 4.66602,-3.63672 -0.0693,-1.34 0.2578,-2.71202 0.48046,-4.05469 0.24534,-1.47999 0.7868,-2.94578 0.82813,-4.42578 0.068,-2.608 -0.22763,-5.2287 0.8457,-7.7207 0.068,-0.15867 0.0358,-0.37593 0.008,-0.55859 -0.24133,-1.336 0.22911,-2.44847 1.03711,-3.48047 0.384,-0.49334 0.61208,-1.09034 0.94141,-1.625 1.304,-2.09334 2.02863,-4.53601 4.14062,-6.13867 0.48267,-0.36534 0.87141,-0.81579 1.19141,-1.31446 z m -7.4043,4.65235 c 0.204,0.0467 0.38489,0.22117 0.57422,0.33984 -0.10533,0.128 -0.214,0.26066 -0.38867,0.47266 -0.216,-0.192 -0.37568,-0.33638 -0.54101,-0.48438 0.11866,-0.11733 0.26346,-0.34812 0.35546,-0.32812 z m -5.47461,1.6582 c 0.16534,0.576 0.29456,1.01555 0.44922,1.57422 -1.02666,0.17067 -1.74815,-0.10506 -2.66015,-0.78906 0.85733,-0.304 1.47094,-0.52516 2.21093,-0.78516 z m -1.87304,1.91211 c 0.0387,0.0947 0.0864,0.19244 0.12109,0.28711 -0.10533,0.02 -0.20707,0.0454 -0.3164,0.0508 -0.0213,0 -0.0694,-0.13306 -0.0547,-0.15039 0.0747,-0.076 0.16466,-0.1275 0.25,-0.1875 z m 4.36914,1.29883 c 0.44838,-0.05 0.60279,0.41508 0.87695,1.58008 -0.0973,0.11733 -0.19697,0.23103 -0.29297,0.3457 -0.576,-0.42267 -1.15349,-0.84903 -1.79882,-1.31836 0.56949,-0.362 0.94581,-0.57744 1.21484,-0.60742 z m 6.57422,3.14062 c 0.0493,0 0.11767,-0.0195 0.15234,0.006 0.0333,0.0253 0.0328,0.0958 0.0488,0.14649 -0.0893,0 -0.17319,-0.004 -0.25586,-0.004 0.0173,-0.0453 0.0333,-0.0951 0.0547,-0.14844 z m 133.92383,0.33789 c 0.21733,0.17467 0.42719,0.34415 0.64453,0.52149 -0.152,0.21066 -0.32028,0.39979 -0.48828,0.59179 -0.0413,-0.368 -0.10159,-0.74261 -0.15625,-1.11328 z m -144.2793,2.85352 c 0.0213,0.152 0.0929,0.32584 0.0449,0.45117 -0.06,0.14933 -0.20369,0.2652 -0.31836,0.39453 0.0107,0.0187 0.0181,0.0354 0.0234,0.0527 -0.0373,0.007 -0.074,0.0149 -0.11133,0.0176 -0.2,0.15334 -0.3989,0.30141 -0.60156,0.44141 -0.04,-0.1 -0.0799,-0.20841 -0.11719,-0.31641 0.23867,-0.04 0.47742,-0.085 0.71875,-0.125 0.0227,-0.0147 0.0457,-0.0315 0.0684,-0.0488 0.008,-0.008 0.0155,-0.0162 0.0195,-0.0215 -0.0573,-0.15733 -0.16224,-0.32255 -0.12891,-0.44922 0.0547,-0.15866 0.26368,-0.26715 0.40235,-0.39648 z m -1.71485,2.40234 c 0.288,0.0933 0.50148,0.40758 0.74415,0.62891 -0.19067,0.2 -0.4226,0.58207 -0.5586,0.55273 -0.304,-0.0707 -0.56862,-0.34577 -1.00195,-0.64843 0.38,-0.26134 0.66441,-0.57987 0.8164,-0.53321 z m 5.49024,3.46094 c 0.18,0.0133 0.44618,0.24687 0.46484,0.4082 0.016,0.14667 -0.23896,0.43632 -0.40429,0.45899 -0.16534,0.0227 -0.36394,-0.20145 -0.69727,-0.41211 0.30133,-0.228 0.47805,-0.47241 0.63672,-0.45508 z m -6.36914,0.86328 c -0.12533,0.24533 -0.23321,0.48824 -0.31055,0.74024 -0.12,-0.0787 -0.24957,-0.17369 -0.3789,-0.29102 0.23866,-0.19067 0.47078,-0.34389 0.68945,-0.44922 z m 156.48437,0.0684 c 0.0893,-0.003 0.17186,0 0.25586,0 -0.0187,0.0453 -0.0341,0.0951 -0.0527,0.14844 -0.0493,0 -0.11768,0.0214 -0.15234,-0.004 -0.0333,-0.0227 -0.0348,-0.0939 -0.0508,-0.14453 z m -155.10547,1.58984 c 0.21067,0.13067 0.36909,0.37738 0.48243,0.60938 0.0213,0.056 -0.26732,0.36056 -0.33399,0.33789 -0.052,-0.0227 -0.10735,-0.0507 -0.16601,-0.0801 -0.10267,-0.34133 -0.10658,-0.60399 -0.004,-0.86133 0.005,0 0.0188,-0.0125 0.0215,-0.006 z m 150.35743,1.25586 c 0.0787,0.0253 0.15561,0.0544 0.23828,0.0957 -0.148,0.22666 -0.28054,0.43749 -0.42188,0.66015 0.0253,-0.28 0.0889,-0.52786 0.1836,-0.75586 z m -3.01172,0.19727 c 0.048,1.60133 -0.61555,2.67804 -1.93555,3.2207 -0.11333,-0.66133 -0.25407,-1.00553 -0.55273,-1.26953 0.0253,-0.112 0.0502,-0.22456 0.0742,-0.33789 0.79466,-0.488 1.55806,-1.03461 2.41406,-1.61328 z m -144.85156,0.006 c 0.2005,-0.0245 0.40708,-0.0207 0.59375,0.002 0.116,0.0147 0.30684,0.59402 0.21484,0.80469 -0.16,0.36133 -0.46959,0.83158 -0.79492,0.90625 -0.55334,0.116 -1.13671,0.0959 -1.72071,0.0879 -0.0373,-0.22533 -0.0852,-0.43839 -0.14257,-0.65039 0.41733,-0.34933 0.83687,-0.6978 1.29687,-0.98047 0.158,-0.0927 0.35224,-0.14542 0.55274,-0.16992 z m 146.56445,0.041 c 0.0547,0.44934 0.27487,0.76837 0.9082,0.84571 -0.27733,0.44133 -0.5516,0.87083 -0.82226,1.29883 0.008,0.003 0.0103,0.008 0.0156,0.0137 v 0.0547 c 0.0893,0.052 0.1762,0.10549 0.26953,0.16016 -0.0907,0.0453 -0.16885,0.0933 -0.24219,0.14258 -0.0133,-0.10267 -0.026,-0.20274 -0.0273,-0.30274 -0.0133,-0.008 -0.0277,-0.0206 -0.041,-0.0312 0.0107,-0.009 0.02,-0.0238 0.0254,-0.0371 -0.59734,-0.488 -0.80843,-1.07478 -0.3711,-1.77344 0.0867,-0.14534 0.17983,-0.26443 0.28516,-0.3711 z m -147.69727,3.20508 c 0.12267,-0.003 0.36961,0.24475 0.34961,0.33008 -0.0507,0.19733 -0.22232,0.37078 -0.34765,0.55078 -0.0853,-0.068 -0.18439,-0.13935 -0.40039,-0.30469 v -0.0234 c -0.009,-0.16267 -0.0207,-0.30832 -0.0274,-0.45899 0.15467,-0.0547 0.29245,-0.0964 0.42578,-0.0937 z m 145.2793,0.84375 c 0.2,-0.0133 0.41404,0.14315 0.7207,0.25782 -0.444,0.67733 -0.82252,0.85872 -1.61718,0.16406 0.47466,-0.23734 0.68048,-0.40721 0.89648,-0.42188 z m -144.33398,1.03906 c 0.32266,0.024 0.63061,0.24832 1.11328,0.45899 -0.45334,0.27867 -0.68947,0.49546 -0.9668,0.57812 -0.25467,0.072 -0.57774,0.0695 -0.81641,-0.0332 -0.10266,-0.0453 -0.16907,-0.51424 -0.0664,-0.62891 0.168,-0.19999 0.49366,-0.39499 0.73633,-0.375 z m 140.96679,2.37696 c 0.096,0.0707 0.18907,0.14166 0.28906,0.23633 -0.16266,0.12266 -0.31089,0.19911 -0.46289,0.28711 0.0613,-0.176 0.11517,-0.34878 0.17383,-0.52344 z m -1.47851,3.82226 c 0.27866,0.0973 0.52649,0.34482 0.92383,0.63282 -0.388,0.25333 -0.67346,0.57091 -0.82813,0.51757 -0.16667,-0.0573 -0.30736,-0.19317 -0.44336,-0.33984 0.11733,-0.27067 0.23299,-0.53988 0.34766,-0.81055 z m -0.67774,2.17578 c 0.0387,0.10267 0.0728,0.21036 0.10742,0.31836 -0.19466,0.0293 -0.39251,0.0605 -0.58984,0.0899 0.0173,-0.0347 0.0342,-0.0688 0.0488,-0.10352 0.14533,-0.104 0.28826,-0.20735 0.43359,-0.30469 z m -0.62109,0.70508 c 0.036,0.0907 0.0584,0.17481 0.0371,0.24414 -0.0453,0.12 -0.1735,0.21145 -0.29883,0.30078 0.0907,-0.17999 0.17505,-0.36225 0.26172,-0.54492 z m -3.26563,6.14844 c 0.0707,0.052 0.12989,0.0983 0.19922,0.1543 -0.164,0.1 -0.30869,0.18119 -0.44336,0.25586 0.08,-0.13867 0.16548,-0.27016 0.24414,-0.41016 z m 3.51563,1.79297 c 0.0213,0 0.0681,0.13501 0.0508,0.15234 -0.076,0.0733 -0.16795,0.12236 -0.25195,0.17969 -0.0413,-0.0947 -0.0852,-0.19173 -0.11719,-0.28906 0.10533,-0.0173 0.20903,-0.0403 0.31836,-0.043 z m -1.81055,0.58984 c 0.67713,0.0523 1.24888,0.34896 1.92188,0.87696 -0.864,0.288 -1.48381,0.49294 -2.23047,0.73828 -0.152,-0.58134 -0.27078,-1.02461 -0.41211,-1.58594 0.257,-0.037 0.49499,-0.0467 0.7207,-0.0293 z m -3.20117,2.88672 c 0.32733,-0.0132 0.69499,0.0226 0.98633,0.0566 0.212,0.0227 0.5591,0.60142 0.50976,0.85742 -0.27866,1.38 -0.65472,2.73837 -1.02539,4.09571 -0.036,0.128 -0.27871,0.20135 -0.60937,0.41601 -0.128,-0.34266 -0.2118,-0.50068 -0.23047,-0.66601 -0.0267,-0.16934 0.0172,-0.35285 0.0332,-0.60352 -0.44266,-0.0507 -0.85466,-0.0982 -1.36133,-0.1582 -0.068,-0.416 -0.13555,-0.82407 -0.21289,-1.30274 -0.37333,-0.0467 -0.77366,-0.0982 -1.23632,-0.1582 -0.0253,-1.70533 1.71105,-1.44692 2.40039,-2.29492 0.13133,-0.16533 0.41876,-0.22902 0.74609,-0.24219 z m -128.28711,0.0723 c -0.34333,-0.0173 -0.63825,0.11991 -0.90625,0.39258 -0.364,0.376 -0.45559,0.88812 0.31641,1.32812 0.47466,-0.31333 1.00844,-0.66964 1.78711,-1.18164 -0.46267,-0.34867 -0.85394,-0.52173 -1.19727,-0.53906 z m 14.39844,1.5039 c 0.51466,0.95334 1.00616,1.93338 1.6875,2.74805 2.00666,2.39867 4.13152,4.69591 6.24219,7.00391 3.09466,3.38933 6.63146,6.28503 10.35546,8.95703 1.02134,0.732 2.08653,1.38237 3.11719,2.0957 0.77867,0.53467 1.56379,1.06357 2.31445,1.62891 0.152,0.44133 0.65345,0.86478 1.55079,1.30078 0.007,-0.0107 0.0174,-0.0245 0.0254,-0.0352 0.73066,0.58667 1.50041,1.09355 2.45508,1.32422 0.35466,0.088 0.68871,0.30301 0.99804,0.51367 1.512,1.04534 3.1692,1.72809 4.89453,2.21875 11.91867,6.012 23.21668,6.66097 37.02735,1.79297 4.696,-1.652 9.08889,-3.5761 13.21289,-5.77344 -0.0747,0.16267 -0.14318,0.30953 -0.22852,0.49219 1.032,-0.28 1.29139,-0.35808 1.13672,-0.96875 0.736,-0.404 1.45712,-0.82866 2.17578,-1.25 -0.10266,0.23867 -0.16583,0.49716 -0.17383,0.78516 -0.0307,1.31733 -0.52697,2.2325 -1.54296,2.95117 0.37466,0.44133 0.68747,0.81445 0.99414,1.17578 -0.092,0.08 -0.18092,0.14219 -0.26758,0.24219 0.184,0.088 0.29145,0.12731 0.43945,0.19531 -0.0493,0.052 -0.0971,0.10744 -0.14648,0.16211 -0.65867,-0.35867 -1.31794,-0.70625 -1.94727,-1.04492 -1.02133,0.66667 -0.2318,2.80933 -2.23047,2.5 v -2.37695 c -0.664,0.25333 -1.10072,0.42109 -1.63672,0.62109 -0.636,-0.808 -1.54814,-1.13292 -2.38281,-0.40625 -0.932,0.808 -1.86169,1.74069 -2.42969,2.80469 -0.29866,0.56933 0.17271,1.54799 0.35938,2.72265 -0.68134,-0.37066 -1.16169,-0.56666 -1.56836,-0.86132 -1.62933,-1.172 -3.318,-1.17333 -4.75,0.13867 -0.704,0.64133 -1.54769,0.96659 -2.31836,1.41992 -0.948,0.56133 -1.88501,0.20385 -2.90234,0.47851 0.43066,0.64534 0.75392,1.14554 1.16992,1.76954 -0.43734,0.136 -0.80661,0.38001 -0.97461,0.27734 -0.832,-0.47067 -1.60197,-1.03741 -2.41797,-1.58008 -3.16133,1.33467 -3.17283,1.37614 -5.6875,0.74414 -1.17733,-0.29466 -2.25109,-0.63843 -3.37109,0.24024 -0.308,0.24266 -0.95908,0.0673 -1.45508,0.0566 -0.68134,-0.0147 -1.36359,-0.0674 -2.04492,-0.082 -0.87334,-0.0173 -1.7771,0.11526 -2.6211,-0.0527 -0.932,-0.192 -1.76455,-0.44659 -2.69922,0.0801 -0.30666,0.168 -1.07593,-0.0374 -1.33593,-0.33203 -0.972,-1.09334 -2.15065,-1.13014 -3.44532,-0.99414 -0.61066,0.0653 -1.27609,0.0917 -1.85742,-0.0723 -0.90933,-0.25866 -1.78352,-0.35333 -2.74219,-0.36133 -1.32266,-0.003 -2.75632,-0.17201 -3.23632,-1.91601 -0.21067,-0.76667 -0.70379,-1.37447 -1.81446,-1.23047 -0.69066,0.0867 -1.60184,0.0747 -2.08984,-0.86133 -0.27467,-0.51867 -0.83182,-0.39867 -1.28516,0 -0.25733,0.22 -0.57156,0.36902 -0.85156,0.54102 -1.348,-1.76267 -2.30922,-2.38196 -3.94922,-2.50196 0.45067,0.63734 0.83166,1.18997 1.34766,1.91797 -1.68267,-0.21466 -3.04819,-0.40673 -3.99219,-1.66406 -0.43067,-0.58267 -0.93836,-1.11647 -1.45703,-1.61914 -0.24533,-0.24267 -0.58411,-0.46415 -0.91211,-0.52148 -0.48133,-0.088 -0.9843,-0.0254 -1.4043,-0.0254 -1.03866,-0.92133 -1.02487,-2.67021 -2.6582,-2.93554 -0.51467,-1.51467 -1.93112,-2.5606 -2.42578,-3.94727 -0.584,-1.63733 -1.6204,-2.26911 -3.03906,-2.67578 -0.648,-0.184 -1.33798,-0.22508 -2.05665,-0.34375 -0.0667,-1.84667 -0.69015,-3.24738 -2.41015,-3.99805 -0.30933,-0.136 -0.49805,-0.66358 -0.63672,-1.04492 -0.504,-1.40666 -0.96817,-2.83124 -1.4375,-4.2539 -0.59067,-1.788 -1.63036,-3.46601 -0.81836,-5.52735 0.0787,-0.204 0.12977,-0.42258 0.14844,-0.64258 z m 116.68164,1.26758 c 0.0133,0.0147 0.0167,0.0342 0.0273,0.0488 0.464,0.47067 0.74364,0.99602 0.93164,1.55469 -0.54266,0.27333 -1.10898,0.5484 -1.70898,0.8164 l 0.004,-0.004 c -0.092,-0.17734 -0.26274,-0.3446 -0.44141,-0.44727 -0.012,-0.008 -0.0333,0.005 -0.0586,0.0195 v -0.002 c 0.005,-0.012 -0.0541,-0.0573 -0.0781,-0.084 0.172,-1.32267 0.55089,-1.83435 1.32422,-1.90235 z m -1.38867,2.55664 c 0.0493,0.036 0.0985,0.0586 0.14648,0.0879 -0.0547,0.0253 -0.10673,0.0483 -0.16406,0.0723 0.005,-0.06 0.0149,-0.10149 0.0176,-0.16016 z m -118.84375,2.20899 c 0.0693,0.0107 0.13035,0.15599 0.17968,0.22265 -0.0773,0.0827 -0.14861,0.16538 -0.22461,0.24805 -0.088,-0.10933 -0.17114,-0.21817 -0.25781,-0.32617 0.1,-0.0547 0.2054,-0.1512 0.30274,-0.14453 z m 116.25781,2.2832 c 0.12333,-0.005 0.2295,4.4e-4 0.32617,0.0371 0.20533,0.0773 0.36144,0.27037 0.77344,0.5957 -0.424,0.17467 -0.7135,0.21306 -0.9375,0.15039 0.0907,-0.15733 0.17954,-0.31654 0.29687,-0.56054 -0.30933,-0.11734 -0.59199,-0.14534 -0.86132,-0.13868 -0.008,-0.0253 -0.0226,-0.0384 -0.0293,-0.0664 0.166,0 0.30831,-0.0131 0.43164,-0.0176 z m 2.07812,0.41992 c 0.0733,0.0267 0.10568,0.15881 0.15235,0.24414 -0.084,0.0467 -0.17177,0.094 -0.25977,0.13672 -0.052,-0.084 -0.10372,-0.17381 -0.15039,-0.25781 0.0867,-0.0467 0.18981,-0.14305 0.25781,-0.12305 z m -6.08007,0.24024 c 0.26133,0.25333 0.63867,0.45505 0.77734,0.76171 1.116,2.516 1.10006,2.52692 0.66406,3.65626 -0.37066,-0.34 -0.70594,-0.65015 -1.08593,-0.99415 -0.40134,0.25334 -0.74995,0.47262 -1.36329,0.86329 0.0293,-0.59067 -0.10029,-1.11198 0.0957,-1.30664 0.79466,-0.792 0.92146,-1.67066 0.46679,-2.72266 0.14534,-0.0827 0.29598,-0.16981 0.44532,-0.25781 z m -103.36524,0.0176 c -0.0613,0.003 -0.11649,10e-4 -0.17383,0.004 -0.0227,0.0507 -0.0745,0.11358 -0.0625,0.15625 0.007,0.0373 0.0828,0.0631 0.13477,0.0937 0.0333,-0.084 0.0682,-0.16991 0.10156,-0.25391 z m 109.05274,1.37891 c 0.14133,0.084 0.28054,0.17062 0.42187,0.25195 -0.20933,0.34 -0.41629,0.6783 -0.62695,1.01563 -0.12,-0.064 -0.23156,-0.12803 -0.35156,-0.19336 0.18533,-0.36133 0.37264,-0.71822 0.55664,-1.07422 z m -9.10352,4.54688 c 0.0733,0.0147 0.12164,0.15676 0.18164,0.24609 -0.0907,0.0547 -0.18767,0.16168 -0.26367,0.15234 -0.072,-0.0173 -0.1164,-0.15552 -0.17774,-0.24218 0.0907,-0.06 0.18777,-0.17359 0.25977,-0.15625 z m 5.7207,1.92968 c 0.3535,0.048 0.66152,0.30466 0.99219,0.61133 -0.72133,1.00667 -1.31719,0.3133 -2.25586,0.0293 0.51134,-0.528 0.91017,-0.68863 1.26367,-0.64063 z m -19.42382,2.27149 c 0.056,0.0947 0.0866,0.20115 0.16796,0.28515 0.656,0.664 0.93781,1.43772 1.11915,2.26172 -0.0613,0.0573 -0.1346,0.12626 -0.19727,0.1836 -0.24,-0.17467 -0.45001,-0.24796 -0.52734,-0.39063 -0.67867,-1.256 -1.72216,-1.08324 -2.77149,-0.89258 0.744,-0.47333 1.48632,-0.9526 2.20899,-1.44726 z m 20.40039,0.0898 c -0.28934,1.74133 -0.28908,1.7402 -1.70508,0.9082 0.604,-0.31733 1.05974,-0.56287 1.70508,-0.9082 z m -22.39844,9.89453 c 0.21517,0.011 0.45241,0.12504 0.70508,0.23438 0.43066,0.18533 0.95607,0.16046 1.4414,0.20312 0.47334,0.04 0.95533,0.0496 1.47266,0.0723 -0.4,1.19066 -1.167,1.8919 -3.73633,3.5039 -0.24133,1.944 -0.37997,1.99191 -2.30664,1.36524 -0.85067,-0.276 -1.77293,-0.3484 -2.82227,-0.53906 0.7,-1.352 1.99981,-0.85942 2.86915,-1.33008 0.85466,-0.46934 1.80931,-0.76904 2.94531,-1.23438 -0.34934,-0.452 -0.43546,-0.6407 -0.57813,-0.7207 -0.47466,-0.268 -0.89974,-0.56326 -0.5664,-1.16992 0.16666,-0.30267 0.361,-0.39577 0.57617,-0.38477 z m -3.13867,1.33594 c 0.15602,-0.0146 0.31243,0.0587 0.46093,0.28125 0.15734,0.24933 -0.0741,0.91404 -0.33007,1.2207 -0.20134,0.236 -0.72166,0.19769 -1.09766,0.29102 -0.08,-0.128 -0.15376,-0.24505 -0.23242,-0.37305 0.16,-0.30266 0.26828,-0.64972 0.48828,-0.90039 0.195,-0.22583 0.4509,-0.49513 0.71094,-0.51953 z M 353.0957,352.5 c 0.52263,0.0684 0.94436,0.67183 0.69336,1.29883 -0.536,1.35466 -0.38153,2.20149 1.0918,2.79883 0.872,0.34933 0.80058,0.74244 0.0312,2.17578 0.55867,0.27733 1.11955,0.56021 2.07422,1.04687 -1.128,0.57867 -1.85229,1.20997 -2.62695,1.2793 -0.78134,0.072 -1.60986,-0.41941 -2.50586,-0.69141 -0.32134,0.67867 -0.59666,1.27865 -0.97266,2.08399 -1.14,-0.83334 -2.10756,-1.53966 -3.21289,-2.34766 -0.0893,-0.92533 0.48948,-1.15797 1.38281,-0.91797 0.99333,0.26934 1.55415,-0.0535 1.77149,-1.16015 -0.39867,-0.27734 -0.79044,-0.5502 -1.25977,-0.88086 0.31733,-0.17867 0.59966,-0.33861 0.84766,-0.47461 -0.0733,-0.7 -0.42258,-1.54389 -0.14258,-1.94922 0.58,-0.844 1.42763,-1.56348 2.29297,-2.13281 0.17566,-0.11467 0.36094,-0.15172 0.53515,-0.12891 z m -3.87109,0.97266 c 0.048,0.0947 0.0953,0.19297 0.14062,0.29296 -0.0933,0.0493 -0.21591,0.1491 -0.28125,0.1211 -0.0733,-0.0293 -0.0965,-0.18135 -0.14453,-0.27734 0.096,-0.048 0.19316,-0.0914 0.28516,-0.13672 z m -4.85156,0.25195 c 0.11066,0.35333 0.21996,0.70972 0.39062,1.26172 -0.90933,-0.22534 -1.05729,-0.58039 -0.39062,-1.26172 z m 49.73242,1.625 c -0.89733,0.0373 -1.44922,0.73718 -1.44922,1.83984 -0.003,1.16134 0.60997,1.94534 1.55664,2 0.98267,0.0573 1.84146,-0.86937 1.82813,-1.9707 -0.0187,-1.08133 -0.87822,-1.91447 -1.93555,-1.86914 z m -103.80078,0.74414 c 0.67733,0.67867 0.39279,1.15848 0.0781,1.64648 -0.34666,-0.25733 -0.70011,-0.4988 -1.05078,-0.74414 0.33867,-0.20266 0.66732,-0.46901 0.97266,-0.90234 z m 62.18164,1.03711 c -0.0453,0 -0.0908,0.0559 -0.13477,0.0879 0.0693,0.0547 0.14347,0.11206 0.2168,0.16406 0.0147,-0.0493 0.0334,-0.10353 0.0547,-0.1582 -0.0467,-0.0293 -0.0914,-0.0884 -0.13672,-0.0937 z m 4.68164,1.26172 c 0.084,0.0333 0.1133,0.18587 0.16797,0.2832 -0.10667,0.0387 -0.23012,0.14333 -0.30078,0.11133 -0.0813,-0.032 -0.11278,-0.17858 -0.16211,-0.28125 0.10133,-0.0453 0.22825,-0.14528 0.29492,-0.11328 z M 327.42383,358.5 c 1.45066,0.12533 2.66303,0.16762 3.8457,0.37695 0.32267,0.056 0.61417,0.57422 0.82617,0.93555 0.21867,0.368 0.30466,0.80765 0.47266,1.20898 0.46667,1.072 0.37149,1.41356 -0.58984,1.9629 -1.32534,0.76666 -1.61117,0.6608 -2.3125,-0.64454 -0.644,-1.19466 -1.36619,-2.34784 -2.24219,-3.83984 z m 18.70508,0.11133 c 0.0613,-0.009 0.14994,0.12731 0.22461,0.19531 -0.0747,0.0707 -0.14567,0.19432 -0.23633,0.20898 -0.0587,0.0107 -0.14632,-0.12359 -0.20899,-0.18359 0.076,-0.0773 0.13937,-0.20204 0.22071,-0.2207 z m -10.79102,0.25976 c 0.84933,0.0347 1.19666,0.5 1.11133,1.5 -0.11333,1.32667 -0.1146,1.32805 -1.69727,2.10938 -0.26,-0.74667 -0.60709,-1.45265 -0.73242,-2.19531 -0.13733,-0.83334 0.52103,-1.44473 1.31836,-1.41407 z m 6.18945,0.80274 c 0.11584,-0.0149 0.24506,0.005 0.38672,0.0527 0.14934,0.056 0.20336,0.3807 0.30469,0.58203 -0.37467,0.16534 -0.74944,0.33291 -1.41211,0.62891 0.139,-0.863 0.3732,-1.21911 0.7207,-1.26367 z m 2.69727,1.10156 c 0.648,0.003 1.06484,0.35527 1.58984,0.82227 -1.14533,0.488 -1.64812,0.0615 -2.32812,-0.70118 0.28033,-0.0853 0.52228,-0.12207 0.73828,-0.12109 z m -8.2168,2.75977 c 0.38,0.11066 0.69441,0.47066 1.20508,0.86132 -0.49867,0.38534 -0.89566,0.79562 -0.98633,0.73829 -0.36266,-0.24134 -0.67496,-0.59533 -0.90429,-0.97266 -0.036,-0.0653 0.52288,-0.67495 0.68554,-0.62695 z m 17.87305,0.17578 c 0.34569,-0.0432 0.66809,0.21636 0.87109,0.81836 -0.61333,0.44133 -1.26661,0.90114 -2.11328,1.50781 -0.436,-1.416 0.32591,-1.80093 0.89258,-2.18359 0.11667,-0.0803 0.23438,-0.12819 0.34961,-0.14258 z m -6.79102,0.79687 c 0.47157,0.0659 0.63612,0.73198 0.93946,2.38281 -0.476,0.052 -0.94116,0.10044 -1.42383,0.14844 -0.27467,-0.71866 -0.51368,-1.33732 -0.79102,-2.08398 0.6,-0.31 0.99246,-0.48679 1.27539,-0.44727 z m -16.21289,2.0625 c 0.34,0.068 0.68859,0.1306 1.03125,0.19727 -0.032,0.16533 -0.0536,0.46475 -0.10156,0.46875 -0.34267,0.0347 -0.68787,0.002 -1.0332,-0.008 0.036,-0.21867 0.0662,-0.44087 0.10351,-0.65821 z"
           transform="matrix(7.5000002,0,0,-7.5000002,-3394.933,7982.6348)"
           id="path1383"
           inkscape:connector-curvature="0" />
        <g
           id="g1381"
           style="fill:#ffffff;fill-opacity:1;stroke:none"
           transform="matrix(0.36317533,0,0,0.36317533,-615.70941,3928.4108)">
          <path
             inkscape:connector-curvature="0"
             id="path1350"
             d="m -1757.2389,5691.5562 834.04023,654.911 821.1147,-652.043 -825.3837,546.867 z"
             style="fill:#ffffff;fill-opacity:1;stroke:none;stroke-width:7.5px;stroke-linecap:butt;stroke-linejoin:miter;stroke-opacity:1" />
          <path
             inkscape:connector-curvature="0"
             id="path1352"
             d="m -922.57217,4141.0784 -828.16733,652.4358 828.83923,-547.3399 821.1326,547.4879 z"
             style="fill:#ffffff;fill-opacity:1;stroke:none;stroke-width:7.5px;stroke-linecap:butt;stroke-linejoin:miter;stroke-opacity:1" />
          <g
             aria-label="VDC"
             transform="scale(1,-1)"
             style="font-style:normal;font-variant:normal;font-weight:normal;font-stretch:normal;font-size:300px;line-height:1.25;font-family:'Noto Sans';-inkscape-font-specification:'Noto Sans';letter-spacing:0px;word-spacing:0px;fill:#ffffff;fill-opacity:1;stroke:none;stroke-width:7.5"
             id="text1373">
            <path
               d="m -1154.316,-5477.9487 -192,448 h -124.8 l -191.36,-448 h 136.96 l 121.6,291.84 124.16,-291.84 z"
               style="font-style:normal;font-variant:normal;font-weight:800;font-stretch:normal;font-size:640px;font-family:Montserrat;-inkscape-font-specification:'Montserrat Ultra-Bold';fill:#ffffff;fill-opacity:1;stroke:none;stroke-width:7.5"
               id="path1910" />
            <path
               d="m -1128.716,-5477.9487 h 211.84001 q 73.6,0 130.56,27.52 56.96,27.52 88.32,78.08 31.36,50.56 31.36,118.4 0,67.84 -31.36,118.4 -31.36,50.56 -88.32,78.08 -56.96,27.52 -130.56,27.52 H -1128.716 Z m 206.72001,346.88 q 57.6,0 92.16,-32.64 35.2,-32.64 35.2,-90.24 0,-57.6 -35.2,-90.24 -34.56,-32.64 -92.16,-32.64 h -80.00001 v 245.76 z"
               style="font-style:normal;font-variant:normal;font-weight:800;font-stretch:normal;font-size:640px;font-family:Montserrat;-inkscape-font-specification:'Montserrat Ultra-Bold';fill:#ffffff;fill-opacity:1;stroke:none;stroke-width:7.5"
               id="path1912" />
            <path
               d="m -376.60599,-5020.9887 q -70.4,0 -126.72,-29.44 -55.68,-30.08 -87.68,-83.2 -32,-53.12 -32,-120.32 0,-67.2 32,-120.32 32,-53.12 87.68,-82.56 56.32,-30.08 126.72,-30.08 61.44,0 110.72,21.76 49.28,21.76 81.92,62.72 l -80.64,72.96 q -43.52,-52.48 -105.6,-52.48 -36.48,0 -65.28,16 -28.16,16 -44.16,45.44 -15.36,28.8 -15.36,66.56 0,37.76 15.36,67.2 16,28.8 44.16,44.8 28.8,16 65.28,16 62.08,0 105.6,-52.48 l 80.64,72.96 q -32.64,40.96 -81.92,62.72 -49.28,21.76 -110.72,21.76 z"
               style="font-style:normal;font-variant:normal;font-weight:800;font-stretch:normal;font-size:640px;font-family:Montserrat;-inkscape-font-specification:'Montserrat Ultra-Bold';fill:#ffffff;fill-opacity:1;stroke:none;stroke-width:7.5"
               id="path1914" />
          </g>
        </g>
      </g>
    </g>
  </g>
</svg>
