<?xml version="1.0" encoding="UTF-8" standalone="no"?>
<!-- Created with Inkscape (http://www.inkscape.org/) -->

<svg
   xmlns:dc="http://purl.org/dc/elements/1.1/"
   xmlns:cc="http://creativecommons.org/ns#"
   xmlns:rdf="http://www.w3.org/1999/02/22-rdf-syntax-ns#"
   xmlns:svg="http://www.w3.org/2000/svg"
   xmlns="http://www.w3.org/2000/svg"
   xmlns:sodipodi="http://sodipodi.sourceforge.net/DTD/sodipodi-0.dtd"
   xmlns:inkscape="http://www.inkscape.org/namespaces/inkscape"
   viewBox="8 8 30 29.5"
   version="1.1"
   id="svg8"
   sodipodi:docname="Logo_VDC.svg">
  <metadata
     id="metadata5">
    <rdf:RDF>
      <cc:Work
         rdf:about="">
        <dc:format>image/svg+xml</dc:format>
        <dc:type
           rdf:resource="http://purl.org/dc/dcmitype/StillImage" />
        <dc:title></dc:title>
      </cc:Work>
    </rdf:RDF>
  </metadata>
  <g
     inkscape:label="Camada 1"
     inkscape:groupmode="layer"
     id="layer1"
     transform="translate(-7.265509,-67.497372)">
    <g
       transform="matrix(0.35277777,0,0,-0.35277777,119.76569,281.60961)"
       inkscape:label="ink_ext_XXXXXX"
       id="g823">
      <g
         transform="matrix(0.1,0,0,0.1,-160.15969,-41.365747)"
         id="g825">
        <g
           id="g1381"
           style="fill:rgb(144, 11, 14);fill-opacity:1;stroke:none"
           transform="matrix(0.36317533,0,0,0.36317533,-615.70941,3928.4108)">
          <path
             inkscape:connector-curvature="0"
             id="path1350"
             d="m -1757.2389,5691.5562 834.04023,654.911 821.1147,-652.043 -825.3837,546.867 z"
             style="fill:rgb(144, 11, 14);fill-opacity:1;stroke:none;stroke-width:7.5px;stroke-linecap:butt;stroke-linejoin:miter;stroke-opacity:1" />
          <path
             inkscape:connector-curvature="0"
             id="path1352"
             d="m -922.57217,4141.0784 -828.16733,652.4358 828.83923,-547.3399 821.1326,547.4879 z"
             style="fill:rgb(144, 11, 14);fill-opacity:1;stroke:none;stroke-width:7.5px;stroke-linecap:butt;stroke-linejoin:miter;stroke-opacity:1" />
          <g
             aria-label="VDC"
             transform="scale(1,-1)"
             style="font-style:normal;font-variant:normal;font-weight:normal;font-stretch:normal;font-size:300px;line-height:1.25;font-family:'Noto Sans';-inkscape-font-specification:'Noto Sans';letter-spacing:0px;word-spacing:0px;fill:rgb(144, 11, 14);fill-opacity:1;stroke:none;stroke-width:7.5"
             id="text1373">
            <path
               d="m -1154.316,-5477.9487 -192,448 h -124.8 l -191.36,-448 h 136.96 l 121.6,291.84 124.16,-291.84 z"
               style="font-style:normal;font-variant:normal;font-weight:800;font-stretch:normal;font-size:640px;font-family:Montserrat;-inkscape-font-specification:'Montserrat Ultra-Bold';fill:rgb(144, 11, 14);fill-opacity:1;stroke:none;stroke-width:7.5"
               id="path1910" />
            <path
               d="m -1128.716,-5477.9487 h 211.84001 q 73.6,0 130.56,27.52 56.96,27.52 88.32,78.08 31.36,50.56 31.36,118.4 0,67.84 -31.36,118.4 -31.36,50.56 -88.32,78.08 -56.96,27.52 -130.56,27.52 H -1128.716 Z m 206.72001,346.88 q 57.6,0 92.16,-32.64 35.2,-32.64 35.2,-90.24 0,-57.6 -35.2,-90.24 -34.56,-32.64 -92.16,-32.64 h -80.00001 v 245.76 z"
               style="font-style:normal;font-variant:normal;font-weight:800;font-stretch:normal;font-size:640px;font-family:Montserrat;-inkscape-font-specification:'Montserrat Ultra-Bold';fill:rgb(144, 11, 14);fill-opacity:1;stroke:none;stroke-width:7.5"
               id="path1912" />
            <path
               d="m -376.60599,-5020.9887 q -70.4,0 -126.72,-29.44 -55.68,-30.08 -87.68,-83.2 -32,-53.12 -32,-120.32 0,-67.2 32,-120.32 32,-53.12 87.68,-82.56 56.32,-30.08 126.72,-30.08 61.44,0 110.72,21.76 49.28,21.76 81.92,62.72 l -80.64,72.96 q -43.52,-52.48 -105.6,-52.48 -36.48,0 -65.28,16 -28.16,16 -44.16,45.44 -15.36,28.8 -15.36,66.56 0,37.76 15.36,67.2 16,28.8 44.16,44.8 28.8,16 65.28,16 62.08,0 105.6,-52.48 l 80.64,72.96 q -32.64,40.96 -81.92,62.72 -49.28,21.76 -110.72,21.76 z"
               style="font-style:normal;font-variant:normal;font-weight:800;font-stretch:normal;font-size:640px;font-family:Montserrat;-inkscape-font-specification:'Montserrat Ultra-Bold';fill:rgb(144, 11, 14);fill-opacity:1;stroke:none;stroke-width:7.5"
               id="path1914" />
          </g>
        </g>
      </g>
    </g>
  </g>
</svg>
